<svg width="37" height="60" viewBox="0 0 37 60" fill="none" xmlns="http://www.w3.org/2000/svg">
<path d="M36.6497 1.67178C36.6497 1.23358 36.4756 0.813325 36.1657 0.50347C35.8559 0.193614 35.4356 0.0195388 34.9974 0.0195388H26.7362C22.5763 -0.187682 18.5034 1.26001 15.4075 4.04632C12.3116 6.83262 10.4444 10.731 10.2138 14.8897V23.8118H1.9526C1.51439 23.8118 1.09414 23.9859 0.784285 24.2958C0.474429 24.6056 0.300354 25.0259 0.300354 25.4641V34.0557C0.300354 34.4939 0.474429 34.9142 0.784285 35.224C1.09414 35.5339 1.51439 35.708 1.9526 35.708H10.2138V57.848C10.2138 58.2862 10.3879 58.7065 10.6977 59.0163C11.0076 59.3262 11.4278 59.5003 11.866 59.5003H21.7795C22.2177 59.5003 22.638 59.3262 22.9478 59.0163C23.2577 58.7065 23.4317 58.2862 23.4317 57.848V35.708H32.0895C32.4569 35.7132 32.8156 35.5959 33.1089 35.3745C33.4021 35.153 33.6132 34.8401 33.7087 34.4853L36.0879 25.8936C36.1537 25.6495 36.1625 25.3936 36.1137 25.1455C36.065 24.8974 35.96 24.6638 35.8067 24.4627C35.6535 24.2616 35.4562 24.0983 35.23 23.9855C35.0037 23.8727 34.7546 23.8132 34.5018 23.8118H23.4317V14.8897C23.5139 14.0718 23.8981 13.3138 24.5091 12.7639C25.1201 12.214 25.9142 11.9116 26.7362 11.9157H34.9974C35.4356 11.9157 35.8559 11.7416 36.1657 11.4318C36.4756 11.1219 36.6497 10.7016 36.6497 10.2634V1.67178Z" fill="white"/>
</svg>
