<svg width="60" height="60" viewBox="0 0 60 60" fill="none" xmlns="http://www.w3.org/2000/svg">
<path d="M41.7748 0H17.7254C7.95159 0 0 7.95159 0 17.7254V41.7748C0 51.5487 7.95159 59.5003 17.7254 59.5003H41.7748C51.5487 59.5003 59.5003 51.5487 59.5003 41.7748V17.7254C59.5001 7.95159 51.5485 0 41.7748 0ZM53.5145 41.7748C53.5145 48.2584 48.2584 53.5145 41.7748 53.5145H17.7254C11.2418 53.5145 5.98572 48.2584 5.98572 41.7748V17.7254C5.98572 11.2417 11.2418 5.98572 17.7254 5.98572H41.7748C48.2584 5.98572 53.5145 11.2417 53.5145 17.7254V41.7748Z" fill="url(#paint0_linear_1_208)"/>
<path d="M41.7748 0H17.7254C7.95159 0 0 7.95159 0 17.7254V41.7748C0 51.5487 7.95159 59.5003 17.7254 59.5003H41.7748C51.5487 59.5003 59.5003 51.5487 59.5003 41.7748V17.7254C59.5001 7.95159 51.5485 0 41.7748 0ZM53.5145 41.7748C53.5145 48.2584 48.2584 53.5145 41.7748 53.5145H17.7254C11.2418 53.5145 5.98572 48.2584 5.98572 41.7748V17.7254C5.98572 11.2417 11.2418 5.98572 17.7254 5.98572H41.7748C48.2584 5.98572 53.5145 11.2417 53.5145 17.7254V41.7748Z" fill="white"/>
<path d="M29.7501 14.3613C21.2647 14.3613 14.3612 21.2648 14.3612 29.7501C14.3612 38.2354 21.2647 45.139 29.7501 45.139C38.2356 45.139 45.139 38.2355 45.139 29.7501C45.139 21.2647 38.2356 14.3613 29.7501 14.3613ZM29.7501 39.1534C24.5569 39.1534 20.347 34.9435 20.347 29.7502C20.347 24.5569 24.557 20.3471 29.7501 20.3471C34.9434 20.3471 39.1533 24.5569 39.1533 29.7502C39.1533 34.9434 34.9433 39.1534 29.7501 39.1534Z" fill="url(#paint1_linear_1_208)"/>
<path d="M29.7501 14.3613C21.2647 14.3613 14.3612 21.2648 14.3612 29.7501C14.3612 38.2354 21.2647 45.139 29.7501 45.139C38.2356 45.139 45.139 38.2355 45.139 29.7501C45.139 21.2647 38.2356 14.3613 29.7501 14.3613ZM29.7501 39.1534C24.5569 39.1534 20.347 34.9435 20.347 29.7502C20.347 24.5569 24.557 20.3471 29.7501 20.3471C34.9434 20.3471 39.1533 24.5569 39.1533 29.7502C39.1533 34.9434 34.9433 39.1534 29.7501 39.1534Z" fill="white"/>
<path d="M45.1688 18.1643C47.2054 18.1643 48.8563 16.5133 48.8563 14.4768C48.8563 12.4403 47.2054 10.7893 45.1688 10.7893C43.1323 10.7893 41.4813 12.4403 41.4813 14.4768C41.4813 16.5133 43.1323 18.1643 45.1688 18.1643Z" fill="url(#paint2_linear_1_208)"/>
<path d="M45.1688 18.1643C47.2054 18.1643 48.8563 16.5133 48.8563 14.4768C48.8563 12.4403 47.2054 10.7893 45.1688 10.7893C43.1323 10.7893 41.4813 12.4403 41.4813 14.4768C41.4813 16.5133 43.1323 18.1643 45.1688 18.1643Z" fill="white"/>
<defs>
<linearGradient id="paint0_linear_1_208" x1="29.7501" y1="391.595" x2="29.7501" y2="-83.3178" gradientUnits="userSpaceOnUse">
<stop stop-color="#E09B3D"/>
<stop offset="0.3" stop-color="#C74C4D"/>
<stop offset="0.6" stop-color="#C21975"/>
<stop offset="1" stop-color="#7024C4"/>
</linearGradient>
<linearGradient id="paint1_linear_1_208" x1="29.7501" y1="216.922" x2="29.7501" y2="-28.7364" gradientUnits="userSpaceOnUse">
<stop stop-color="#E09B3D"/>
<stop offset="0.3" stop-color="#C74C4D"/>
<stop offset="0.6" stop-color="#C21975"/>
<stop offset="1" stop-color="#7024C4"/>
</linearGradient>
<linearGradient id="paint2_linear_1_208" x1="45.1688" y1="59.3271" x2="45.1688" y2="0.46217" gradientUnits="userSpaceOnUse">
<stop stop-color="#E09B3D"/>
<stop offset="0.3" stop-color="#C74C4D"/>
<stop offset="0.6" stop-color="#C21975"/>
<stop offset="1" stop-color="#7024C4"/>
</linearGradient>
</defs>
</svg>
