<svg width="668" height="668" viewBox="0 0 668 668" fill="none" xmlns="http://www.w3.org/2000/svg">
<path fill-rule="evenodd" clip-rule="evenodd" d="M0 333.864C0 518.264 149.481 667.745 333.889 667.745C518.281 667.745 667.753 518.255 667.753 333.864C667.753 149.472 518.281 0 333.889 0C149.481 0 0 149.464 0 333.864ZM516.485 350.519C450.017 310.74 365.481 288.979 278.085 288.979C222.298 288.979 183.958 296.936 146.434 307.243C132.553 311.157 125.668 320.919 125.668 335.115C125.668 349.592 137.387 361.294 151.745 361.294C156.134 361.294 159.256 360.291 163.093 359.059C164.582 358.581 166.179 358.068 168 357.566C198.196 349.523 234.698 343.6 276.962 343.6C359.404 343.6 434.672 365.021 488.987 397.251L489.853 397.756C494.452 400.445 498.887 403.038 505.71 403.038C520.238 403.038 531.753 391.362 531.753 376.902C531.745 365.021 527.634 356.911 516.485 350.519ZM282.672 398C355.728 398 420.843 414.766 476.876 448.349C485.208 453.217 490.094 458.187 490.094 470.536C490.094 482.57 480.315 491.413 469.328 491.413C463.932 491.413 460.264 489.532 455.2 486.477C406.8 457.2 346.459 441.813 282.434 441.813C246.715 441.813 210.749 446.383 177.124 453.379C175.541 453.721 173.84 454.141 172.123 454.565C167.904 455.606 163.585 456.672 160.664 456.672C147.983 456.672 139.532 446.604 139.532 435.694C139.532 421.668 147.634 414.698 157.702 412.757C198.936 403.37 240.008 398 282.672 398ZM561.421 238.664C486.068 194.417 382.911 174.247 284.885 174.247C227.141 174.247 174.008 180.783 126.409 194.809C114.281 198.391 103.038 208.57 103.038 226.723C103.038 244.528 116.707 258.621 134.519 258.621C139.078 258.621 143.633 257.278 147.666 256.088C149.061 255.676 150.394 255.283 151.643 254.97C193.762 243.54 239.745 238.936 285.021 238.936C375.719 238.936 469.506 258.885 529.932 295.132C536.315 298.621 540.34 300.272 547.132 300.272C563.992 300.272 578.63 287.2 578.63 268.996C578.638 253.098 571.583 244.417 561.421 238.664Z" fill="white"/>
</svg>
